<?xml version="1.0" encoding="UTF-8"?>
<svg width="512px" height="500px" viewBox="0 0 512 500" version="1.1" xmlns="http://www.w3.org/2000/svg" xmlns:xlink="http://www.w3.org/1999/xlink">
    <g id="Website" stroke="none" stroke-width="1" fill="none" fill-rule="evenodd">
        <g id="github" fill="#4A5568">
            <path d="M256,0 C114.64,0 0,114.61 0,256 C0,369.09 73.34,465 175.08,498.9 C187.88,501.25 192.55,493.34 192.55,486.56 C192.55,480.48 192.33,464.38 192.2,443.02 C121,458.51 106,408.68 106,408.68 C94.36,379.11 77.58,371.23 77.58,371.23 C54.31,355.39 79.31,355.68 79.31,355.68 C105,357.49 118.52,382.06 118.52,382.06 C141.36,421.18 178.44,409.88 193.02,403.33 C195.35,386.79 201.96,375.51 209.27,369.11 C152.43,362.68 92.67,340.68 92.67,242.62 C92.67,214.67 102.67,191.82 119.02,173.93 C116.39,167.45 107.6,141.43 121.53,106.18 C121.53,106.18 143.02,99.3 191.93,132.42 C233.884306,120.930807 278.155694,120.930807 320.11,132.42 C368.98,99.29 390.44,106.18 390.44,106.18 C404.44,141.43 395.62,167.45 392.99,173.93 C409.4,191.83 419.3,214.68 419.3,242.62 C419.3,340.97 359.45,362.62 302.42,368.94 C311.61,376.84 319.8,392.47 319.8,416.35 C319.8,450.57 319.49,478.18 319.49,486.58 C319.49,493.43 324.1,501.39 337.09,498.89 C438.72,464.97 512,369.08 512,256.02 C512,114.62 397.37,0 256,0 Z" id="Path"></path>
        </g>
    </g>
</svg>